<svg xmlns="http://www.w3.org/2000/svg" viewBox="0 0 64 64" id="Photo"><g transform="translate(2325.942 -7474.568) scale(1.99995)" fill="#000000" class="color000000 svgShape"><g transform="translate(46.502 46.462)" fill="#000000" class="color000000 svgShape"><rect width="23" height="25" x="-1205" y="3694.41" fill="#dfe8e1" rx="1" ry="1.087" class="colore8dfe4 svgShape"></rect><rect width="19" height="17" x="-1203" y="3696.41" fill="#167ffc" rx="0" ry="0" class="color1267d6 svgShape"></rect><path fill="#ccccda" d="M-1184 3694.409v18.953c0 2.216-1.784 4-4 4h-17v.96c0 .603.446 1.087 1 1.087h21c.554 0 1-.484 1-1.086v-22.826c0-.602-.446-1.088-1-1.088h-1z" class="colordaccd4 svgShape"></path><path fill="none" stroke="#ffffff" stroke-linecap="round" stroke-linejoin="round" d="M-1204.5 3705.362v-8.5m0 11.514v-1" opacity=".7" class="colorStrokeffffff svgStroke"></path><path fill="#595bd4" d="M-1186 3696.409v8.953c0 3.324-2.676 6-6 6h-11v2.047h19v-17h-2z" class="color0a3d9d svgShape"></path></g><path fill="#53d86a" d="m-1150.766 3753.723 4.632-5.852 4.632 5.852" class="color42a555 svgShape"></path><path fill="#42744b" d="m-1148.5 3750.86-2.267 2.864h4.533l-2.266-2.863z" class="color427451 svgShape"></path><path fill="#53d86a" d="m-1156.498 3753.723 4.632-5.852 4.632 5.852" class="color42a555 svgShape"></path><circle cx="-1140.998" cy="3747.372" r="1.5" fill="#fe9526" class="colorffd55e svgShape"></circle></g></svg>